<svg width="136" height="23" viewBox="0 0 136 23" fill="none" xmlns="http://www.w3.org/2000/svg">
<path d="M8.33167 9.46266V16.0966C8.33167 17.0395 8.57904 17.7355 9.07376 18.1845C9.56849 18.611 10.2094 18.8243 10.9965 18.8243C11.4912 18.8243 12.0534 18.7457 12.683 18.5886V22.5285C11.8735 22.8428 10.8953 23 9.74839 23C7.63456 23 6.01544 22.4051 4.89106 21.2152C3.78917 20.0254 3.23822 18.3529 3.23822 16.1977V9.46266H0V5.65739H3.23822V1.65007L8.33167 0V5.65739H12.683V9.46266H8.33167Z" fill="#0FDBA8"/>
<path d="M25.2475 5.25329C25.9671 5.25329 26.5742 5.36554 27.069 5.59004L27.0352 10.2372C26.2032 9.85554 25.3712 9.66471 24.5391 9.66471C23.1899 9.66471 22.1554 10.0351 21.4358 10.776C20.7387 11.4944 20.3901 12.5046 20.3901 13.8067V22.7306H15.2967V10.5403C15.2967 8.72182 15.2067 7.09419 15.0268 5.65739H19.8167L20.154 8.58712C20.5813 7.50952 21.2447 6.69009 22.1442 6.12884C23.0662 5.54514 24.1006 5.25329 25.2475 5.25329Z" fill="#0FDBA8"/>
<path d="M45.4579 5.65739V22.7306H40.4994V20.2387C39.9597 21.1367 39.2513 21.8214 38.3743 22.2928C37.4973 22.7643 36.5078 23 35.4059 23C33.2696 23 31.673 22.4051 30.616 21.2152C29.5591 20.0254 29.0307 18.2294 29.0307 15.8272V5.65739H34.1241V15.9283C34.1241 17.9937 35.0124 19.0264 36.7889 19.0264C37.8458 19.0264 38.7004 18.6672 39.3525 17.9488C40.0046 17.2304 40.3307 16.2875 40.3307 15.1201V5.65739H45.4579Z" fill="#0FDBA8"/>
<path fill-rule="evenodd" clip-rule="evenodd" d="M64.936 14.6149H53.6697C53.7596 16.2089 54.1756 17.3763 54.9177 18.1171C55.6598 18.8355 56.7617 19.1947 58.2234 19.1947C59.1004 19.1947 59.9774 19.0488 60.8545 18.757C61.7315 18.4651 62.541 18.0386 63.2831 17.4773L64.6324 20.9122C63.8228 21.5632 62.8109 22.0795 61.5966 22.4612C60.4047 22.8204 59.2016 23 57.9873 23C55.1089 23 52.8489 22.2143 51.2073 20.6428C49.5657 19.0488 48.7449 16.8824 48.7449 14.1435C48.7449 12.4148 49.0934 10.877 49.7905 9.53001C50.5101 8.16057 51.5108 7.10542 52.7926 6.36457C54.0744 5.60127 55.5249 5.21962 57.144 5.21962C59.5502 5.21962 61.4504 6.00537 62.8446 7.57687C64.2389 9.12591 64.936 11.225 64.936 13.8741V14.6149ZM57.2085 12.6281C58.4505 12.6281 59.4573 11.623 59.4573 10.3831C59.4573 9.14324 58.4505 8.13812 57.2085 8.13812C55.9665 8.13812 54.9597 9.14324 54.9597 10.3831C54.9597 11.623 55.9665 12.6281 57.2085 12.6281Z" fill="#0FDBA8"/>
<path d="M84.5872 5.65738V22.7306H79.6287V20.2386C79.089 21.1366 78.3806 21.8214 77.5036 22.2928C76.6266 22.7643 75.6371 23 74.5352 23C72.3989 23 70.8023 22.4051 69.7454 21.2152C68.6884 20.0254 68.16 18.2294 68.16 15.8272V5.65738H73.2534V15.9282C73.2534 17.9936 74.1417 19.0263 75.9182 19.0263C76.9751 19.0263 77.8297 18.6671 78.4818 17.9487C79.1339 17.2303 79.46 16.2874 79.46 15.12V5.65738H84.5872Z" fill="white" fill-opacity="0.3"/>
<path d="M95.2614 23C92.0231 23 89.4708 22.304 87.6043 20.9121L88.9536 17.3763C89.8531 18.0273 90.8538 18.5324 91.9557 18.8916C93.0576 19.2284 94.182 19.3968 95.3288 19.3968C96.2058 19.3968 96.8805 19.2621 97.3527 18.9927C97.825 18.7233 98.0611 18.3304 98.0611 17.814C98.0611 17.3875 97.8924 17.0507 97.5551 16.8038C97.2178 16.5568 96.6219 16.3436 95.7673 16.164L92.9676 15.5241C91.326 15.1649 90.1117 14.5925 89.3246 13.8067C88.56 13.021 88.1778 11.977 88.1778 10.675C88.1778 9.6198 88.4813 8.6769 89.0885 7.84625C89.7182 7.0156 90.5839 6.37578 91.6858 5.92678C92.7877 5.45533 94.0583 5.2196 95.4975 5.2196C96.7118 5.2196 97.9037 5.41043 99.073 5.79208C100.242 6.15128 101.288 6.66763 102.21 7.34113L100.793 10.7423C99.9163 10.1362 99.0168 9.67593 98.0948 9.36163C97.1953 9.04733 96.3183 8.89018 95.4637 8.89018C94.6317 8.89018 93.9796 9.0361 93.5073 9.32795C93.0351 9.6198 92.799 10.0239 92.799 10.5402C92.799 10.9219 92.9339 11.2362 93.2037 11.4831C93.4961 11.7076 94.0021 11.8985 94.7217 12.0556L97.5888 12.6954C99.3429 13.0995 100.613 13.7057 101.4 14.5139C102.188 15.3221 102.581 16.3997 102.581 17.7467C102.581 19.3631 101.929 20.6427 100.625 21.5856C99.3204 22.5285 97.5326 23 95.2614 23Z" fill="white" fill-opacity="0.3"/>
<path d="M121.03 14.6149H109.764C109.853 16.2089 110.269 17.3763 111.012 18.1171C111.754 18.8355 112.856 19.1947 114.317 19.1947C115.194 19.1947 116.071 19.0488 116.948 18.7569C117.825 18.4651 118.635 18.0385 119.377 17.4773L120.726 20.9121C119.917 21.5632 118.905 22.0795 117.69 22.4612C116.499 22.8204 115.295 23 114.081 23C111.203 23 108.943 22.2142 107.301 20.6427C105.66 19.0488 104.839 16.8824 104.839 14.1435C104.839 12.4148 105.187 10.877 105.884 9.53C106.604 8.16055 107.605 7.1054 108.886 6.36455C110.168 5.60125 111.619 5.2196 113.238 5.2196C115.644 5.2196 117.544 6.00535 118.938 7.57685C120.333 9.1259 121.03 11.225 121.03 13.8741V14.6149ZM113.373 8.78915C112.406 8.78915 111.619 9.06978 111.012 9.63103C110.427 10.1923 110.045 11.0117 109.865 12.0893H116.645C116.375 9.8892 115.284 8.78915 113.373 8.78915Z" fill="white" fill-opacity="0.3"/>
<path d="M134.179 5.25328C134.898 5.25328 135.505 5.36553 136 5.59003L135.966 10.2372C135.134 9.85553 134.302 9.6647 133.47 9.6647C132.121 9.6647 131.086 10.0351 130.367 10.776C129.67 11.4944 129.321 12.5046 129.321 13.8067V22.7306H124.228V10.5402C124.228 8.7218 124.138 7.09418 123.958 5.65738H128.748L129.085 8.5871C129.512 7.5095 130.176 6.69008 131.075 6.12883C131.997 5.54513 133.032 5.25328 134.179 5.25328Z" fill="white" fill-opacity="0.3"/>
</svg>
