<svg width="1374" height="232" viewBox="0 0 1374 232" fill="none" xmlns="http://www.w3.org/2000/svg">
<g opacity="0.05">
<path d="M84.1744 95.4495V162.366C84.1744 171.877 86.6735 178.897 91.6717 183.426C96.6699 187.729 103.145 189.88 111.097 189.88C116.095 189.88 121.775 189.087 128.136 187.502V227.245C119.957 230.415 110.074 232 98.4874 232C77.1315 232 60.7737 225.999 49.4141 213.997C38.2817 201.995 32.7156 185.124 32.7156 163.385V95.4495H0V57.0659H32.7156V16.6442L84.1744 0V57.0659H128.136V95.4495H84.1744Z" fill="#0FDBA8"/>
<path d="M255.074 52.9897C262.344 52.9897 268.478 54.122 273.476 56.3865L273.135 103.262C264.729 99.4124 256.323 97.4875 247.917 97.4875C234.286 97.4875 223.835 101.224 216.565 108.697C209.522 115.943 206 126.134 206 139.268V229.283H154.542V106.319C154.542 87.9766 153.633 71.5588 151.815 57.0659H200.207L203.615 86.6179C207.932 75.7482 214.634 67.4827 223.721 61.8214C233.036 55.9336 243.487 52.9897 255.074 52.9897Z" fill="#0FDBA8"/>
<path d="M459.258 57.0659V229.283H409.163V204.146C403.71 213.204 396.554 220.111 387.693 224.867C378.833 229.622 368.836 232 357.704 232C336.121 232 319.99 225.999 309.312 213.997C298.634 201.995 293.295 183.879 293.295 159.649V57.0659H344.754V160.668C344.754 181.501 353.728 191.918 371.676 191.918C382.354 191.918 390.987 188.295 397.576 181.048C404.165 173.802 407.459 164.291 407.459 152.515V57.0659H459.258Z" fill="#0FDBA8"/>
<path fill-rule="evenodd" clip-rule="evenodd" d="M656.044 147.42H542.221C543.13 163.498 547.333 175.274 554.831 182.747C562.328 189.993 573.46 193.616 588.228 193.616C597.088 193.616 605.949 192.144 614.809 189.201C623.669 186.257 631.848 181.954 639.346 176.293L652.977 210.94C644.798 217.507 634.575 222.715 622.306 226.565C610.265 230.188 598.11 232 585.842 232C556.762 232 533.929 224.074 517.344 208.223C500.759 192.144 492.467 170.292 492.467 142.665C492.467 125.228 495.988 109.716 503.031 96.1288C510.301 82.3153 520.411 71.672 533.361 64.1991C546.311 56.4997 560.965 52.6501 577.322 52.6501C601.632 52.6501 620.83 60.5759 634.915 76.4275C649.001 92.0527 656.044 113.226 656.044 139.947V147.42ZM577.974 127.379C590.522 127.379 600.693 117.241 600.693 104.734C600.693 92.2274 590.522 82.0888 577.974 82.0888C565.427 82.0888 555.255 92.2274 555.255 104.734C555.255 117.241 565.427 127.379 577.974 127.379Z" fill="#0FDBA8"/>
<path d="M854.579 57.0658V229.282H804.484V204.146C799.031 213.204 791.875 220.111 783.014 224.867C774.154 229.622 764.157 232 753.025 232C731.442 232 715.311 225.999 704.633 213.997C693.955 201.995 688.616 183.879 688.616 159.648V57.0658H740.075V160.668C740.075 181.501 749.049 191.918 766.997 191.918C777.675 191.918 786.308 188.295 792.897 181.048C799.486 173.802 802.78 164.291 802.78 152.515V57.0658H854.579Z" fill="white"/>
<path d="M962.42 232C929.704 232 903.918 224.98 885.061 210.94L898.693 175.274C907.78 181.841 917.89 186.936 929.023 190.559C940.155 193.956 951.515 195.654 963.101 195.654C971.962 195.654 978.778 194.296 983.549 191.578C988.32 188.861 990.705 184.898 990.705 179.689C990.705 175.387 989.001 171.99 985.593 169.499C982.186 167.008 976.165 164.857 967.532 163.045L939.246 156.591C922.661 152.968 910.393 147.194 902.441 139.268C894.717 131.342 890.855 120.812 890.855 107.678C890.855 97.0345 893.922 87.5235 900.056 79.1448C906.417 70.7661 915.164 64.3122 926.296 59.7832C937.429 55.0277 950.265 52.6499 964.805 52.6499C977.074 52.6499 989.115 54.5748 1000.93 58.4245C1012.74 62.0477 1023.31 67.2561 1032.62 74.0497L1018.31 108.357C1009.45 102.243 1000.36 97.6007 991.046 94.4303C981.958 91.26 973.098 89.6748 964.465 89.6748C956.059 89.6748 949.47 91.1468 944.699 94.0906C939.928 97.0345 937.542 101.111 937.542 106.319C937.542 110.169 938.906 113.339 941.632 115.83C944.585 118.095 949.697 120.019 956.967 121.605L985.934 128.058C1003.66 132.135 1016.49 138.249 1024.44 146.401C1032.39 154.553 1036.37 165.423 1036.37 179.01C1036.37 195.315 1029.78 208.222 1016.61 217.733C1003.43 227.244 985.366 232 962.42 232Z" fill="white"/>
<path d="M1222.76 147.42H1108.93C1109.84 163.498 1114.05 175.274 1121.54 182.747C1129.04 189.993 1140.17 193.616 1154.94 193.616C1163.8 193.616 1172.66 192.144 1181.52 189.2C1190.38 186.257 1198.56 181.954 1206.06 176.293L1219.69 210.94C1211.51 217.507 1201.29 222.715 1189.02 226.565C1176.98 230.188 1164.82 232 1152.56 232C1123.47 232 1100.64 224.074 1084.06 208.222C1067.47 192.144 1059.18 170.292 1059.18 142.665C1059.18 125.228 1062.7 109.716 1069.74 96.1287C1077.01 82.3152 1087.12 71.6719 1100.07 64.199C1113.02 56.4996 1127.68 52.6499 1144.04 52.6499C1168.34 52.6499 1187.54 60.5758 1201.63 76.4274C1215.71 92.0526 1222.76 113.226 1222.76 139.947V147.42ZM1145.4 88.6558C1135.63 88.6558 1127.68 91.4864 1121.54 97.1477C1115.64 102.809 1111.77 111.075 1109.96 121.944H1178.45C1175.73 99.7519 1164.71 88.6558 1145.4 88.6558Z" fill="white"/>
<path d="M1355.6 52.9896C1362.87 52.9896 1369 54.1219 1374 56.3864L1373.66 103.262C1365.25 99.4123 1356.85 97.4874 1348.44 97.4874C1334.81 97.4874 1324.36 101.224 1317.09 108.697C1310.05 115.943 1306.52 126.134 1306.52 139.268V229.282H1255.07V106.319C1255.07 87.9764 1254.16 71.5587 1252.34 57.0658H1300.73L1304.14 86.6177C1308.46 75.748 1315.16 67.4825 1324.25 61.8212C1333.56 55.9335 1344.01 52.9896 1355.6 52.9896Z" fill="white"/>
</g>
</svg>
