<svg width="375" height="424" viewBox="0 0 375 424" fill="none" xmlns="http://www.w3.org/2000/svg">
<path fill-rule="evenodd" clip-rule="evenodd" d="M385.455 224.045H117.242C119.384 262.056 129.288 289.894 146.955 307.561C164.621 324.692 190.854 333.258 225.652 333.258C246.53 333.258 267.409 329.778 288.288 322.818C309.167 315.859 328.439 305.687 346.106 292.303L378.227 374.212C358.955 389.737 334.864 402.051 305.955 411.152C277.581 419.717 248.939 424 220.03 424C151.505 424 97.702 405.263 58.6212 367.788C19.5404 329.778 0 278.116 0 212.803C0 171.581 8.29798 134.909 24.8939 102.788C42.0253 70.1313 65.8485 44.9697 96.3636 27.303C126.879 9.10101 161.409 0 199.955 0C257.237 0 302.475 18.7374 335.667 56.2121C368.859 93.1515 385.455 143.207 385.455 206.379V224.045ZM206.646 176.667C236.213 176.667 260.182 152.698 260.182 123.131C260.182 93.5646 236.213 69.596 206.646 69.596C177.08 69.596 153.111 93.5646 153.111 123.131C153.111 152.698 177.08 176.667 206.646 176.667Z" fill="#0FDBA8" fill-opacity="0.065"/>
</svg>
